<svg xmlns="http://www.w3.org/2000/svg" viewBox="0 0 344.02 457.1"><defs><style>.cls-1{fill:#143150;}.cls-2{fill:#fff;}.cls-3{fill:#ffd6ce;}.cls-4{fill:#ff6e79;}.cls-5{fill:#ff97a9;}.cls-6{fill:#e24242;}</style></defs><g id="Layer_2" data-name="Layer 2"><g id="Layer_1-2" data-name="Layer 1"><g id="brazo_saludo"><path class="cls-1" d="M33.41,106.57c1.11-3.5,3.87-6.08,7.74-5.37,4.45.81,5.85,5.48,6.76,9.25.26,1.08.45,2.14.65,3.24,0,.29.14.72.18,1,.25,1.24.51,2.49.8,3.73a119.37,119.37,0,0,0,4.91,15.8c.47,1.21,1,2.42,1.47,3.61.25.6.51,1.2.78,1.79,0,.12.45,1,.65,1.42l.7,1.43c.29.58.59,1.16.89,1.74.61,1.15,1.23,2.29,1.88,3.41q2.09,3.67,4.46,7.17c.73,1.08,1.47,2.14,2.24,3.19.38.53.77,1.05,1.16,1.56l.18.21A8,8,0,0,1,72.2,168a8.14,8.14,0,0,1-9.49,6.1c-4.38-.82-7-5.2-9.37-8.6q-2.64-3.71-5-7.62A125.6,125.6,0,0,1,39.64,140a104.72,104.72,0,0,1-5.19-17.42,63.39,63.39,0,0,1-1.6-10.33A16.71,16.71,0,0,1,33.41,106.57Z"/><path class="cls-2" d="M18.14,102.66c-3.62,5.45,1.48,17.55,23.28,12.51,18.1-4.2,22-16.91,13.6-19.43,0,0,14.18-34,5.69-37.94S46.93,71.93,46.93,71.93s.11-23-2.07-29.81-9.54-3.82-10.09.27-.55,24-.55,24S31,51.67,27.41,43.48s-12.82-3.27-12.55,3S19.5,68.57,19.5,68.57,14.59,59,10.23,55.21-.13,55.48,1,62.84,11.32,94.48,18.14,102.66Z"/><path class="cls-3" d="M2.38,54.14c2.14-1.55,5.08-1,7.13.4,2.62,1.81,4.57,4.73,6.35,7.32.81,1.19,1.56,2.4,2.25,3.65-.65-2.54-1.29-5.08-1.94-7.62-1.16-4.52-3.21-10-1.1-14.57C16.62,40,20.48,37.76,24,39.65S28.75,46.4,30,49.91a130.81,130.81,0,0,1,3.83,12.56c0-.45,0-.89,0-1.34q-.09-4.05-.16-8.12c0-2.54-.19-5.09-.07-7.63a10.54,10.54,0,0,1,1.79-6c2.33-3,6.75-3.56,8.92-.08a17.64,17.64,0,0,1,1.91,6.07,72.12,72.12,0,0,1,1,7.33,98,98,0,0,1,.35,13.18A21.27,21.27,0,0,1,52,59.61c2.8-2.68,9.08-6.38,11.64-1.54a13.32,13.32,0,0,1,1,7.59c-.29,2.85-.81,5.69-1.36,8.5A88.14,88.14,0,0,1,59,89.79a26.85,26.85,0,0,1-3.26,6.06c3.51,1.38,4.91,6.12,3.34,9.46a11.91,11.91,0,0,1-4.42,4.6,39.18,39.18,0,0,1-19.86,6.72c-4.5.25-9.2-.19-13.25-2.3a11.31,11.31,0,0,1-5.16-5c-1-2.21,0-4.94,1.38-6.8a18.35,18.35,0,0,1-4.35-5.13,69.74,69.74,0,0,1-3.93-8.51C8.24,86,7.05,83.07,5.93,80.12,4.75,77,3.61,73.84,2.6,70.65A57.26,57.26,0,0,1,.09,61C-.23,58.5.24,55.68,2.38,54.14Zm-.32,7.92A125,125,0,0,0,7.21,78.52c2,5.24,3.9,10.59,6.32,15.64a19.94,19.94,0,0,0,5.07,7,11.23,11.23,0,0,0,3.71,2c1.29.41,2.64.38,4,.69a.46.46,0,0,1,.11.84c-2.24,1.2-5.25,0-7.27-1.22l0,0a11.61,11.61,0,0,0-.85,5.2c.29,1.87,2.46,3.24,4,4.08,3.35,1.83,7.34,2.27,11.09,2.19a38.37,38.37,0,0,0,11.76-2.11,30.4,30.4,0,0,0,10.43-5.69c1.63-1.46,2.86-3.42,2.52-5.69a5.9,5.9,0,0,0-3.42-4.33,9.93,9.93,0,0,1-4.73,3,.54.54,0,0,1-.41-1,16.92,16.92,0,0,0,4.35-3.5,21.33,21.33,0,0,0,3-4.92,66.17,66.17,0,0,0,3.82-12.63q.85-3.77,1.52-7.58A38.49,38.49,0,0,0,63,63c-.06-1.91-.49-5.67-3.07-5.69-2.1,0-4.35,1.36-5.9,2.67a18,18,0,0,0-4.42,5.81C48.32,68.3,47.79,71,46.9,73.58c-.26.76-1.59.7-1.49-.2a21.93,21.93,0,0,1,.82-4c-.25-4.3-.15-8.63-.38-12.94a67.81,67.81,0,0,0-1.94-13.37c-.42-1.61-1-3.67-2.67-4.42s-3.57.35-4.55,1.69c-1.24,1.69-1.36,3.95-1.35,6,0,2.3.09,4.6.13,6.9q.08,4,.16,7.92c0,1.26,0,2.51.06,3.76a12.56,12.56,0,0,1-.2,3.92.65.65,0,0,1-1.25,0,6.21,6.21,0,0,1-.3-1.72c-1.38-4.37-2.78-8.73-4.29-13.06-.79-2.25-1.56-4.5-2.4-6.74a17.36,17.36,0,0,0-2.36-4.64,4.73,4.73,0,0,0-4.18-2.1,5.73,5.73,0,0,0-4.09,3.32c-1,2.09-.84,4.59-.42,6.81s1.1,4.5,1.66,6.74c1.3,5.24,2.66,10.45,3.89,15.7a.8.8,0,0,1-1.55.43c-.32-1.17-.61-2.34-.91-3.51C16.48,66,14.07,61.6,10.74,57.89c-1.57-1.76-3.92-3.65-6.45-2.84C1.37,56,1.52,59.67,2.06,62.06Z"/><path class="cls-3" d="M37.16,85.6a14.91,14.91,0,0,1,2.3-4.68,9.44,9.44,0,0,1,3.8-3.38c.59-.23.87.57.56,1A41,41,0,0,0,40.76,82a13.13,13.13,0,0,0-1.84,4.38,15.36,15.36,0,0,0-.15,5.41c.12.91.33,1.8.51,2.7.15.74.43,1.63-.14,2.24a.46.46,0,0,1-.45.11c-.85-.2-1.11-1.26-1.32-2a20.7,20.7,0,0,1-.6-3.12A15.4,15.4,0,0,1,37.16,85.6Z"/><path class="cls-3" d="M21.58,84c.31-.59,1-.51,1.58-.44a16.91,16.91,0,0,0,7.45-.47,15.33,15.33,0,0,0,3.76-1.75c1.22-.78,2.22-1.85,3.41-2.65.53-.35,1,.32.79.79a8.26,8.26,0,0,1-2.47,2.76,15.13,15.13,0,0,1-3.21,2,16.89,16.89,0,0,1-7.4,1.56c-1,0-2.9,0-3.69-.75A.89.89,0,0,1,21.58,84Z"/></g><g id="cuerpo"><path class="cls-4" d="M38.31,232.74c5-14.39,13.25-27.83,24.65-38-3.26-12.05-5.52-24.77-4.15-37.21a58.72,58.72,0,0,1,13-31.62A43.05,43.05,0,0,1,82.14,117q-.35-3.33-.83-6.59a185.1,185.1,0,0,1-5.76-27.05c-7.5-28.95-15.29-51.6,6.13-67C117.77-9.55,188.45-13,252.67,69c48.25,61.62,56.08,148.36,30.65,221-13.87,39.64-40.67,80.72-80.26,98.34-38,16.92-83.51,7-117-15.6C46.45,345.91,26.5,301.28,33.32,253.61A112.46,112.46,0,0,1,38.31,232.74Z"/><path class="cls-1" d="M187.86,424.13c25.32,3.28,39.32,14.39,37.09,26.79s-35.31,3.12-48.24-1.68S167.2,421.46,187.86,424.13Z"/><path class="cls-1" d="M164.43,382.25a6.31,6.31,0,0,1,5.51-3.22c4.11.28,6.59,2.89,8.46,6.34a76.43,76.43,0,0,1,3.73,7.87,81.18,81.18,0,0,1,4.13,13.89,90.3,90.3,0,0,1,1.86,15.45c.18,6.13.57,13.53-5.16,17.32-3.4,2.25-7.35,1.09-9.5-2.27-3.25-5.07-1.09-10.83-1.34-16.34-.1-2.12-.27-4.24-.52-6.34l-.14-1.1c-.07-.4-.16-1-.16-1-.18-1.05-.38-2.09-.6-3.13a87.53,87.53,0,0,0-3.56-12.21c-.37-1-.71-2-1.09-3-.16-.44-.34-.88-.51-1.32,0,0-.51-1.21-.5-1.21-.21-.48-.56-1.28-.5-1.13a14.59,14.59,0,0,1-.8-2.21A8.38,8.38,0,0,1,164.43,382.25Z"/><path class="cls-1" d="M63.66,403.43c-25.35-3-41.64,4.33-42.52,16.89S54.61,432,68.32,430.5,84.34,405.9,63.66,403.43Z"/><path class="cls-1" d="M96.63,368.56a6.32,6.32,0,0,0-4.56-4.48c-4-.73-7.1,1.2-9.76,4.08a79,79,0,0,0-5.54,6.72,80.2,80.2,0,0,0-7.4,12.46,89.58,89.58,0,0,0-5.59,14.52c-1.67,5.9-3.86,13,.77,18.06,2.75,3,6.86,2.85,9.77.12,4.39-4.12,3.7-10.24,5.29-15.51.62-2,1.3-4,2.06-6,0,0,.26-.66.41-1s.4-1,.39-.94c.43-1,.88-1.93,1.35-2.89a87.53,87.53,0,0,1,6.45-11c.59-.87,1.17-1.75,1.78-2.62.27-.38.54-.77.82-1.15l.78-1.05.76-1a14.33,14.33,0,0,0,1.31-1.94A8.39,8.39,0,0,0,96.63,368.56Z"/><path class="cls-1" d="M310.94,250.82c-.61,3.57-3,6.47-6.85,6.3-4.46-.19-6.46-4.58-7.86-8.15-.4-1-.73-2-1.08-3.08l-.3-.92c-.42-1.19-.84-2.37-1.29-3.54a120.17,120.17,0,0,0-6.93-14.81c-.63-1.13-1.27-2.24-1.93-3.34-.33-.55-.66-1.1-1-1.64-.07-.12-.57-.9-.83-1.3L282,219c-.36-.53-.73-1.06-1.11-1.58-.74-1-1.51-2.08-2.29-3.09q-2.55-3.31-5.34-6.42c-.85-.95-1.73-1.89-2.62-2.82l-1.35-1.37-.19-.18a7.92,7.92,0,0,1-4.4-7.68,8.05,8.05,0,0,1,8.47-7.25c4.4.22,7.5,4.16,10.33,7.16,2.05,2.18,4,4.45,5.88,6.79a124.35,124.35,0,0,1,11,16.31,104.57,104.57,0,0,1,7.42,16.35,62.56,62.56,0,0,1,3,9.9A16.38,16.38,0,0,1,310.94,250.82Z"/><path class="cls-2" d="M342.08,312.94c-2.21,4-5,4.92-6.92,5-.41,9.14-12,11-14.6,3.07,0,0-9.08,5.81-11.13-4.89-1.58-8.26-3.75-23.93-3.75-23.93S304,297,301.44,303.08c-3.4,8.05-12.3,5.37-13.09-4.27C287.44,287.68,293,269,293,269c-.14.48-3.08-2.25-3.18-2.39-2.19-3-2.93-6.65-.85-9.84a25.67,25.67,0,0,1,18.43-11.27c.47-.05.94-.09,1.42-.12,6.57-.4,15.57-.87,20.77,4a9.88,9.88,0,0,1,2.84,5c.58,2.46-1,4.38-2.87,5.74,2.94,3.75,7.6,17.16,8.23,18.91a92.64,92.64,0,0,1,5.54,25.4C343.53,307,343.43,310.5,342.08,312.94Z"/><path class="cls-3" d="M287.63,288.29c1.05-5.61,2.05-11.14,4.17-16.47.19-.49.41-1,.62-1.47a1.24,1.24,0,0,1-.16,0,11.59,11.59,0,0,1-6-11.31c.53-5.27,5.08-8.57,9.49-10.7,5.72-2.77,11.56-4.76,18-4.73a45.43,45.43,0,0,1,9.16,1,17.46,17.46,0,0,1,7.59,3.32,9.71,9.71,0,0,1,3.59,7.32c0,2.14-1.27,5.29-3.64,5.54a26.5,26.5,0,0,1,3.13,5.2,125.89,125.89,0,0,1,4.84,13,130.23,130.23,0,0,1,4.11,14.6A56.34,56.34,0,0,1,344,308.23a11.3,11.3,0,0,1-2.34,6.77,7,7,0,0,1-5,2.68,11.43,11.43,0,0,1-1.28,4.75c-1.67,3-5.1,4.36-8.44,4.21a8.57,8.57,0,0,1-7.25-4.1,6.26,6.26,0,0,1-2.1,1.63,5.76,5.76,0,0,1-5.66-.65c-4.14-2.8-4.18-8.65-4.88-13.08q-1-6.3-1.94-12.6a26.32,26.32,0,0,1-1.41,3.88,14.37,14.37,0,0,1-4.24,5.68c-4,2.93-8.95,1.12-11.36-2.87C285.15,299.63,286.65,293.53,287.63,288.29Zm1,11.66c.6,3.69,4,8.09,8.21,6.54,2.22-.82,3.75-2.94,4.78-5a30.15,30.15,0,0,0,2.6-8.06.76.76,0,0,1,.2-.4c-.08-.57-.18-1.15-.26-1.72-.16-1.13,1.56-1.27,1.75-.17.86,4.93,1.66,9.86,2.44,14.8.39,2.47.77,4.94,1.18,7.4a19.91,19.91,0,0,0,1.7,6.36c.88,1.6,2.61,3.09,4.53,2.87,2.09-.23,3.35-2.33,3.82-4.17a30.61,30.61,0,0,0,.6-7c0-2.4-.05-4.81-.23-7.2-.2-2.64-.53-5.28-1-7.9s-1.31-5.4-1.55-8.12c0-.25.34-.42.48-.18a28.31,28.31,0,0,1,2.53,7.58,66.44,66.44,0,0,1,1.33,7.69,68,68,0,0,1,.4,8.32,30.11,30.11,0,0,1-.69,7.52,9.71,9.71,0,0,1-.61,1.63.71.71,0,0,1,.07.09c1,2.4,3.62,3.63,6.12,3.77,3,.16,5.91-1.25,6.91-4.19s.56-6.33.39-9.34c-.22-3.85-.63-7.68-1.11-11.51-.27-2.16-.6-4.31-1-6.46a47,47,0,0,1-.88-6.44.17.17,0,0,1,.33-.08,28.29,28.29,0,0,1,2,6.36c.5,2.07.92,4.16,1.3,6.26a110.41,110.41,0,0,1,1.51,13.2c.07,1.11.13,2.27.13,3.44,4-.78,5.4-4.73,5.48-8.55a61,61,0,0,0-1.54-13.59,127.76,127.76,0,0,0-3.8-13.58c-1.32-4.05-2.65-8.13-4.23-12.09s-3.63-7.58-7-10.11c-.51-.39,0-1.3.61-1a14.86,14.86,0,0,1,3.26,2.67,5.51,5.51,0,0,0,2.4-5.25,8.11,8.11,0,0,0-3.22-5.36,15.65,15.65,0,0,0-6.78-2.68,45.54,45.54,0,0,0-8-.78,30.77,30.77,0,0,0-8.22,1,50.1,50.1,0,0,0-7.47,2.79c-3.75,1.69-8.19,3.93-9.4,8.21a9.31,9.31,0,0,0,4.46,10.66c.06,0,.1.08.15.11a37.93,37.93,0,0,1,2.18-3.74c1.47-2.2,3.28-4.69,5.7-5.91.53-.27.9.47.62.87-1.29,1.79-3,3.28-4.29,5.08a33.86,33.86,0,0,0-3.34,5.73,59.79,59.79,0,0,0-4.2,14.24c-.47,2.51-.82,5-1.17,7.55A26.12,26.12,0,0,0,288.61,300Z"/><path class="cls-3" d="M327,273a1.52,1.52,0,0,1,1.78.93,25.86,25.86,0,0,1,.48,2.77,8.15,8.15,0,0,1,.14,1.21c0,.19,0,.39,0,.59a2.7,2.7,0,0,1,0,.49,1.31,1.31,0,0,1-.51.77,1,1,0,0,1-.95.09c-.59-.2-.82-.87-1.05-1.4a7.75,7.75,0,0,1-.35-1.16c-.1-.37-.21-.75-.31-1.13s-.29-1-.37-1.54A1.52,1.52,0,0,1,327,273Z"/><path class="cls-3" d="M311.55,275a1.52,1.52,0,0,1,1-1.56,1.57,1.57,0,0,1,1.78.53,4.46,4.46,0,0,1,.65,1.68,9.8,9.8,0,0,1,.31,1.77,4.92,4.92,0,0,1-.83,3.39.87.87,0,0,1-1.47-.24,4.28,4.28,0,0,1-.21-.8c0-.06-.1-.49,0-.16,0-.18-.09-.35-.12-.52-.08-.47-.13-.93-.22-1.39l-.06-.3a.69.69,0,0,1,0-.13c-.06-.22-.12-.44-.19-.65A10.34,10.34,0,0,1,311.55,275Z"/><path class="cls-5" d="M130.14,13.06c11.74-5.14,28.32-.84,39.67,4s20.42,11.66,26,22.8c3.53,7-5.05,14.06-11.41,9.81A91.27,91.27,0,0,0,160,37.76c-10.27-3-21.72-2.08-31.13-7.38C122.26,26.68,123.58,15.92,130.14,13.06Z"/><path class="cls-5" d="M91.53,27.5c2-4,5.12-6.11,9.33-7.38,3.45-1,6.64-1.52,9.92.27,2.76,1.51,2.94,5.5,1.45,7.88-1.35,2.16-4,3.11-5.46,4.17-.56.42-1.1.82-1.68,1.21l-.54.35-.28.2a13.6,13.6,0,0,1-5.09,2.31C94.51,37.5,89.21,32.2,91.53,27.5Z"/><path class="cls-1" d="M204.73,88.25l.05,0c-.91-.29-.66-.26-.3-.13l.1,0Z"/><path class="cls-1" d="M185.71,81c.31-1.85,2.33-3.85,3.95-4.72a12.13,12.13,0,0,1,4.07-1.39,24.64,24.64,0,0,1,8.73.18,17.77,17.77,0,0,1,7.64,3.55c2.18,1.74,4.71,4.31,4.46,7.29-.19,2.32-1.87,4.52-4.42,4.43a8.39,8.39,0,0,1-4.21-1.46,12.83,12.83,0,0,0-1.15-.63l.28.09-.48-.18-.1,0,0,0c-.48-.17-3.29-1.32-1.85-.71,1,.44.11.07-.07,0l-.66-.22a10.73,10.73,0,0,0-4.93-.45c-.79.16-1.57.34-2.36.49a16.56,16.56,0,0,1-2.89.37,7.84,7.84,0,0,1-3.6-.76C185.87,85.85,185.35,83.13,185.71,81Z"/><path class="cls-1" d="M120.72,77.37A24.24,24.24,0,0,1,126.8,76a21.08,21.08,0,0,1,5.93.3,11.06,11.06,0,0,1,3,1.09,5.19,5.19,0,0,1,2.87,2.91,3.07,3.07,0,0,1-.82,3.09,4.4,4.4,0,0,1-1.84,1,7.84,7.84,0,0,1-1.07.14l.05,0-.08,0h-.12c-.39,0-.21,0,0,0-.31.08-.65.12-.94.17a19.06,19.06,0,0,1-2,.23l-.27,0-1,.19c-.77.17-1.53.4-2.29.62-.36.11-.72.23-1.07.36l-.53.19-.17.06a3.1,3.1,0,0,1-.37.22c-.33.17-.66.35-1,.54-.69.41-1.33.88-2,1.33a6.83,6.83,0,0,1-5.49,1.15,5.31,5.31,0,0,1-3.87-5.09C114,80.44,117.38,78.7,120.72,77.37Z"/><path class="cls-1" d="M134.91,84.53l-.16,0a.61.61,0,0,0,.13,0Z"/><path class="cls-1" d="M117.78,150.57c.32-1.9,1.58-3.11,3-4.24a13.4,13.4,0,0,1,4.3-2.08,12.62,12.62,0,0,1,4.23-.5,21.4,21.4,0,0,1,2.41.27,8.24,8.24,0,0,1,2.08.81,2.13,2.13,0,0,1-.5,3.86l-.8.19a57,57,0,0,0,3.59,7.68,38.82,38.82,0,0,0,5.67,7.17,41.91,41.91,0,0,0,15.26,9.83c12.13,4.31,25.14,1.81,35.72-5.35a47.36,47.36,0,0,0,8.13-7,37.32,37.32,0,0,0,3.37-4.24c.7-1,1.3-2.13,1.94-3.19l-.58-.1a3.28,3.28,0,0,1-2.37-3.12,4,4,0,0,1,.44-1.63,3.22,3.22,0,0,1,1.93-1.48,6.46,6.46,0,0,1,1.58-.14c.48.05,1,.12,1.45.2a11.74,11.74,0,0,1,1.52.4,12.69,12.69,0,0,1,4,2.19,14,14,0,0,1,2.49,2.78,8.75,8.75,0,0,1,.75,1.38c.16.38.36.8.49,1.2a2.82,2.82,0,0,1-.34,2.14,2.24,2.24,0,0,1-2.45,1c.66.08.59.07-.19,0a2,2,0,0,1-.7-.28,3.31,3.31,0,0,1-.69-.6,9.2,9.2,0,0,0-.68-.72l-.63-.58c-.11-.11-.24-.21-.36-.32a18.52,18.52,0,0,0-1.66-1,32.32,32.32,0,0,1-3.69,7.94,41,41,0,0,1-7,8.81,46.19,46.19,0,0,1-19.31,10.95c-14.91,4.13-31.07-.31-42.44-10.63a48.77,48.77,0,0,1-8.06-9.55,37.5,37.5,0,0,1-4.94-10.25c-.22.14-.42.3-.63.44s-.24.2-.37.29a7.16,7.16,0,0,1-2.44,1.13,3,3,0,0,1-2.86-.76A3.1,3.1,0,0,1,117.78,150.57Z"/><ellipse class="cls-5" cx="249.32" cy="153.58" rx="20.12" ry="12.38"/><ellipse class="cls-5" cx="96.32" cy="142.83" rx="15.61" ry="9.61"/><path class="cls-6" d="M38.31,232.74c5-14.39,13.25-27.83,24.65-38-3.26-12.05-5.52-24.77-4.15-37.21a58.72,58.72,0,0,1,13-31.62A43.05,43.05,0,0,1,82.14,117q-.35-3.33-.83-6.59a185.1,185.1,0,0,1-5.76-27.05c-6.47-25-13.15-45.27-1.09-60.25a210.5,210.5,0,0,0,25.37,93.22c-15.82,5-26,21.58-27.49,38.12s4.27,32.94,12,47.66c-13.79,5.4-23.71,18.49-27.48,32.81s-1.94,29.66,2.77,43.69c9.24,27.57,30.33,51.48,57.53,61.78,26.06,9.87,55.21,8.81,82.3,4.49,13.34-2.12,27.71-4.45,40.44-9.09,8.41-3.06,28.88-12.48,33-20.8-15.25,30.9-38.52,59.44-69.78,73.35-38,16.92-83.51,7-117-15.6C46.45,345.91,26.5,301.28,33.32,253.61A112.46,112.46,0,0,1,38.31,232.74Z"/><path class="cls-1" d="M148.86,110.37c-1.33-5.29-4.32-10.18-9.18-11.58-14.73-4.24-17.36,19-11.74,27.55,3.35,5.1,9.9,5.78,15,3C150,125.47,150.66,117.5,148.86,110.37Z"/><path class="cls-1" d="M211.92,113.45c-1.34-5.3-4.32-10.18-9.18-11.58-14.74-4.25-17.37,19-11.75,27.55,3.35,5.09,9.91,5.78,15,3C213,128.55,213.71,120.58,211.92,113.45Z"/><path class="cls-2" d="M133,102.52a5.63,5.63,0,0,0-2-2,4.84,4.84,0,0,0-.66-.28,4.12,4.12,0,0,0-2.13-.48,2.91,2.91,0,0,0-1.29.15,5.41,5.41,0,0,0-3.58,2.58,5.45,5.45,0,0,0,0,5.52,13.84,13.84,0,0,0,.88,1.14l0,0a10.81,10.81,0,0,0,1.14.88h0a4,4,0,0,0,2.06.66,4.26,4.26,0,0,0,2.21-.1,12.74,12.74,0,0,0,1.32-.56,5.58,5.58,0,0,0,2-2,5.56,5.56,0,0,0,0-5.58Z"/><path class="cls-2" d="M199.61,104.57a4.59,4.59,0,0,0-2.65-2.26,4.12,4.12,0,0,0-2.13-.48,2.93,2.93,0,0,0-1.29.15,5.37,5.37,0,0,0-1.61.62,5.48,5.48,0,0,0-2,7.48,14.35,14.35,0,0,0,.88,1.14l0,0a9.73,9.73,0,0,0,1.15.88h0a4.07,4.07,0,0,0,2.07.66,4.22,4.22,0,0,0,2.2-.1,12.9,12.9,0,0,0,1.33-.56,5.55,5.55,0,0,0,2-7.57Z"/><path class="cls-5" d="M238.07,282c4.76-4.92,9.52-11.9,15.57-15.12,5.49-2.91,14.67-.78,15.78,6.42,1.41,9.1-2.53,18.32-6.76,26.32-5.06,9.56-12.2,18.07-23.69,18.6-7.35.34-14.12-6.64-13.9-13.9C225.36,294.49,231.7,288.55,238.07,282Z"/><path class="cls-5" d="M198,323.84c.31-3.24,1.51-5.78,4.41-7.47a10.45,10.45,0,0,1,6.16-1.49,7.63,7.63,0,0,1,6.38,3.66c1.22,2.08,1.53,5.4,0,7.45a17.1,17.1,0,0,1-2,2.54,11.51,11.51,0,0,1-4,2.24,8.08,8.08,0,0,1-7.45-.76C199.62,328.64,197.78,326.43,198,323.84Z"/></g></g></g></svg>